<?xml version="1.0" encoding="iso-8859-1"?>
<!-- Generator: Adobe Illustrator 17.1.0, SVG Export Plug-In . SVG Version: 6.00 Build 0)  -->
<!DOCTYPE svg PUBLIC "-//W3C//DTD SVG 1.1//EN" "http://www.w3.org/Graphics/SVG/1.1/DTD/svg11.dtd">
<svg version="1.1" id="Capa_1" height="1.5rem" width="1.5rem" transform="rotate(-90)" xmlns="http://www.w3.org/2000/svg" xmlns:xlink="http://www.w3.org/1999/xlink" x="0px" y="0px"
	 viewBox="0 0 92.298 92.298" style="enable-background:new 0 0 92.298 92.298;" xml:space="preserve">
<g>
	<path d="M59.544,48.752l-10.82-23.03c-0.025-0.054-0.062-0.102-0.091-0.154c-0.408-1.172-1.513-2.021-2.822-2.021h-6.385
		c-1.654,0-3,1.346-3,3v30.628c0,1.654,1.346,3,3,3h0.728l5.09,8.563c0.562,0.945,0.637,2.644,0.161,3.635L37.65,88.521
		c-0.447,0.931-0.438,1.886,0.024,2.621c0.462,0.734,1.32,1.156,2.352,1.156h3.154c1.811,0,3.843-1.279,4.626-2.911l7.753-16.148
		c0.756-1.573,0.693-4.006-0.143-5.538l-6.606-12.116V42.735l5.147,9.603c0.495,0.923,1.395,1.475,2.408,1.475
		c0.577,0,1.139-0.184,1.627-0.532l0.448-0.319C59.735,52.04,60.219,50.19,59.544,48.752z"/>
	<path d="M52.787,10.169C52.787,4.562,48.226,0,42.619,0C37.012,0,32.45,4.562,32.45,10.169s4.562,10.169,10.169,10.169
		C48.226,20.338,52.787,15.776,52.787,10.169z"/>
</g>
<g>
</g>
<g>
</g>
<g>
</g>
<g>
</g>
<g>
</g>
<g>
</g>
<g>
</g>
<g>
</g>
<g>
</g>
<g>
</g>
<g>
</g>
<g>
</g>
<g>
</g>
<g>
</g>
<g>
</g>
</svg>
